<svg width="96" height="71" viewBox="0 0 96 71" fill="none" xmlns="http://www.w3.org/2000/svg">
<path d="M76.5709 37.8184C71.0344 33.6868 62.3628 29.7795 52.7797 27.0983C44.0543 24.6571 35.5438 23.4784 28.8141 23.7794L28.7791 22.9982C35.5889 22.6938 44.1877 23.8823 52.9912 26.3454C62.6636 29.0515 71.4291 33.005 77.04 37.1921L76.5709 37.8184Z" fill="#3F3D56"/>
<path d="M75.9963 41.0007C76.0012 44.6612 75.2324 48.2816 73.7402 51.6253C73.6156 51.9053 73.4858 52.1826 73.3508 52.4573C70.7553 57.7639 66.4351 62.036 61.0948 64.5768C55.7545 67.1177 49.7093 67.7773 43.9452 66.4482C38.1811 65.1191 33.0382 61.8796 29.3555 57.2581C25.6727 52.6367 23.6674 46.906 23.6665 41.0007C23.6665 40.3963 23.6871 39.7965 23.7284 39.2014C23.748 38.8988 23.7733 38.598 23.8044 38.2991C24.4983 31.6422 27.7257 25.5052 32.8206 21.1545C37.9156 16.8039 44.4893 14.5715 51.1852 14.9181C57.8811 15.2647 64.1882 18.1639 68.805 23.0173C73.4218 27.8707 75.9959 34.3079 75.9963 41.0007Z" fill="#F2F2F2"/>
<path opacity="0.1" d="M73.74 51.6253C73.6155 51.9053 73.4857 52.1826 73.3507 52.4573C72.5861 52.5402 71.7813 52.6004 70.9363 52.638C70.2368 52.6692 69.5168 52.6849 68.7812 52.6849C62.356 52.6849 54.6232 51.501 46.7236 49.2911C37.92 46.8279 29.9554 43.3826 24.2962 39.5893C24.1035 39.4603 23.9142 39.331 23.7283 39.2014C23.7479 38.8988 23.7732 38.598 23.8043 38.2991C24.1043 38.5125 24.4137 38.7263 24.7326 38.9403C30.3251 42.6882 38.2098 46.0968 46.9351 48.5381C54.7658 50.7292 62.4257 51.9029 68.7773 51.9029C69.5035 51.9029 70.2114 51.8876 70.9011 51.8568C71.9054 51.8114 72.8517 51.7343 73.74 51.6253Z" fill="black"/>
<path d="M68.7814 52.0594C62.3563 52.0596 54.6231 50.8756 46.7239 48.6655C37.9203 46.2025 29.9554 42.757 24.2962 38.9638C18.5189 35.0914 15.8098 31.2757 16.6679 28.2196C17.526 25.1636 21.8272 23.3092 28.7792 22.9982L28.8142 23.7794C25.5677 23.9246 22.922 24.4063 20.9505 25.211C18.9838 26.0138 17.7967 27.097 17.4222 28.4307C17.0477 29.7644 17.4978 31.3057 18.7601 33.0118C20.0254 34.7221 22.0349 36.5062 24.7329 38.3146C30.3248 42.0627 38.2098 45.4714 46.9353 47.9126C54.7662 50.1035 62.4254 51.2775 68.7776 51.2776C69.5034 51.2776 70.2111 51.2622 70.9009 51.2314C74.1474 51.0862 76.7931 50.6046 78.7647 49.7998C80.7314 48.9971 81.9185 47.9139 82.293 46.5802C82.9654 44.1854 80.9333 41.0737 76.571 37.8184L77.0401 37.1921C79.2849 38.8673 80.9466 40.5186 81.9791 42.0999C83.0859 43.7953 83.4453 45.3737 83.0473 46.7912C82.1892 49.8473 77.8879 51.7016 70.936 52.0126C70.2365 52.0439 69.517 52.0594 68.7814 52.0594Z" fill="#3F3D56"/>
<path d="M50.5235 10.1727C50.6891 10.1727 50.8233 10.0387 50.8233 9.87338C50.8233 9.70809 50.6891 9.5741 50.5235 9.5741C50.3579 9.5741 50.2236 9.70809 50.2236 9.87338C50.2236 10.0387 50.3579 10.1727 50.5235 10.1727Z" fill="#F2F2F2"/>
<path d="M10.7468 23.1596C11.0316 23.1596 11.2626 22.929 11.2626 22.6447C11.2626 22.3603 11.0316 22.1298 10.7468 22.1298C10.4619 22.1298 10.231 22.3603 10.231 22.6447C10.231 22.929 10.4619 23.1596 10.7468 23.1596Z" fill="#CCCCCC"/>
<path d="M9.64742 43.8135C10.2101 43.8135 10.6663 43.3582 10.6663 42.7964C10.6663 42.2347 10.2101 41.7793 9.64742 41.7793C9.08462 41.7793 8.62842 42.2347 8.62842 42.7964C8.62842 43.3582 9.08462 43.8135 9.64742 43.8135Z" fill="#CCCCCC"/>
<path d="M70.8117 12.347C71.1867 12.347 71.4908 12.0435 71.4908 11.6691C71.4908 11.2947 71.1867 10.9912 70.8117 10.9912C70.4366 10.9912 70.1326 11.2947 70.1326 11.6691C70.1326 12.0435 70.4366 12.347 70.8117 12.347Z" fill="#CCCCCC"/>
<path d="M94.8979 40.9042C95.5059 40.9042 95.9999 40.4114 95.9999 39.8036C95.9999 39.1957 95.5059 38.703 94.8979 38.703C94.2889 38.703 93.7949 39.1957 93.7949 39.8036C93.7949 40.4114 94.2889 40.9042 94.8979 40.9042Z" fill="#CCCCCC"/>
<path d="M86.2756 22.6971C86.5368 22.6971 86.7486 22.4857 86.7486 22.2249C86.7486 21.9641 86.5368 21.7527 86.2756 21.7527C86.0143 21.7527 85.8025 21.9641 85.8025 22.2249C85.8025 22.4857 86.0143 22.6971 86.2756 22.6971Z" fill="#CCCCCC"/>
<path d="M28.8361 16.895C29.2437 16.895 29.5742 16.5652 29.5742 16.1584C29.5742 15.7515 29.2437 15.4217 28.8361 15.4217C28.4286 15.4217 28.0981 15.7515 28.0981 16.1584C28.0981 16.5652 28.4286 16.895 28.8361 16.895Z" fill="#CCCCCC"/>
<path d="M84.6198 38.0441C84.8811 38.0441 85.0929 37.8327 85.0929 37.5719C85.0929 37.3111 84.8811 37.0996 84.6198 37.0996C84.3585 37.0996 84.1467 37.3111 84.1467 37.5719C84.1467 37.8327 84.3585 38.0441 84.6198 38.0441Z" fill="#CCCCCC"/>
<path d="M1.53363 30.2735C1.88578 30.2735 2.1713 29.9886 2.1713 29.6371C2.1713 29.2855 1.88578 29.0006 1.53363 29.0006C1.18147 29.0006 0.895996 29.2855 0.895996 29.6371C0.895996 29.9886 1.18147 30.2735 1.53363 30.2735Z" fill="#CCCCCC"/>
<path d="M42.4751 1.25596H41.2169V0H40.5418V1.25596H39.283V1.93044H40.5418V3.18641H41.2169V1.93044H42.4751V1.25596Z" fill="#CCCCCC"/>
<path d="M25.1922 66.256H23.9339V65H23.2588V66.256H22V66.9304H23.2588V68.1864H23.9339V66.9304H25.1922V66.256Z" fill="#CCCCCC"/>
<path d="M71.6638 69.2191H70.8735V68.4307H70.4498V69.2191H69.6597V69.6423H70.4498V70.4309H70.8735V69.6423H71.6638V69.2191Z" fill="#CCCCCC"/>
<path d="M89.9 65.1822H89.3094V64.5927H88.9922V65.1822H88.4016V65.4989H88.9922V66.0884H89.3094V65.4989H89.9V65.1822Z" fill="#CCCCCC"/>
<path opacity="0.1" d="M33.3337 38.806C34.548 38.806 35.5324 37.8233 35.5324 36.6112C35.5324 35.3991 34.548 34.4165 33.3337 34.4165C32.1194 34.4165 31.135 35.3991 31.135 36.6112C31.135 37.8233 32.1194 38.806 33.3337 38.806Z" fill="black"/>
<path opacity="0.1" d="M57.6194 60.8531C58.8337 60.8531 59.8181 59.8705 59.8181 58.6584C59.8181 57.4463 58.8337 56.4637 57.6194 56.4637C56.405 56.4637 55.4207 57.4463 55.4207 58.6584C55.4207 59.8705 56.405 60.8531 57.6194 60.8531Z" fill="black"/>
<path opacity="0.1" d="M50.2236 42.1978C51.4379 42.1978 52.4223 41.2152 52.4223 40.0031C52.4223 38.791 51.4379 37.8083 50.2236 37.8083C49.0093 37.8083 48.0249 38.791 48.0249 40.0031C48.0249 41.2152 49.0093 42.1978 50.2236 42.1978Z" fill="black"/>
<path opacity="0.1" d="M34.4328 54.2689C35.6472 54.2689 36.6315 53.2863 36.6315 52.0742C36.6315 50.862 35.6472 49.8794 34.4328 49.8794C33.2185 49.8794 32.2341 50.862 32.2341 52.0742C32.2341 53.2863 33.2185 54.2689 34.4328 54.2689Z" fill="black"/>
<path opacity="0.1" d="M62.0166 30.426C63.2309 30.426 64.2153 29.4434 64.2153 28.2313C64.2153 27.0192 63.2309 26.0366 62.0166 26.0366C60.8023 26.0366 59.8179 27.0192 59.8179 28.2313C59.8179 29.4434 60.8023 30.426 62.0166 30.426Z" fill="black"/>
<path opacity="0.1" d="M69.3125 45.2904C70.5268 45.2904 71.5112 44.3078 71.5112 43.0957C71.5112 41.8836 70.5268 40.9009 69.3125 40.9009C68.0982 40.9009 67.1138 41.8836 67.1138 43.0957C67.1138 44.3078 68.0982 45.2904 69.3125 45.2904Z" fill="black"/>
<path d="M62.0167 21.9464C63.6174 21.9464 64.915 20.6511 64.915 19.0533C64.915 17.4555 63.6174 16.1602 62.0167 16.1602C60.416 16.1602 59.1184 17.4555 59.1184 19.0533C59.1184 20.6511 60.416 21.9464 62.0167 21.9464Z" fill="white"/>
<path d="M62.0168 14.8633C60.93 14.8633 59.8878 15.2943 59.1193 16.0613C58.3509 16.8284 57.9192 17.8687 57.9192 18.9535C57.9192 21.2125 62.0168 28.6304 62.0168 28.6304C62.0168 28.6304 66.1144 21.2125 66.1144 18.9535C66.1144 17.8687 65.6826 16.8284 64.9142 16.0613C64.1458 15.2943 63.1035 14.8633 62.0168 14.8633ZM62.0168 20.9488C61.6412 20.9488 61.2741 20.8376 60.9618 20.6293C60.6495 20.421 60.4062 20.125 60.2624 19.7787C60.1187 19.4323 60.0811 19.0512 60.1544 18.6835C60.2276 18.3158 60.4085 17.9781 60.6741 17.713C60.9396 17.4479 61.278 17.2674 61.6463 17.1943C62.0147 17.1211 62.3965 17.1587 62.7435 17.3021C63.0904 17.4456 63.387 17.6885 63.5956 18.0002C63.8043 18.3119 63.9157 18.6784 63.9157 19.0533C63.9157 19.3022 63.8666 19.5487 63.7711 19.7787C63.6757 20.0086 63.5358 20.2176 63.3595 20.3936C63.1832 20.5696 62.9738 20.7092 62.7434 20.8045C62.5131 20.8997 62.2661 20.9488 62.0168 20.9488Z" fill="#237AE1"/>
<path d="M33.3221 29.7937C34.9228 29.7937 36.2204 28.4984 36.2204 26.9006C36.2204 25.3028 34.9228 24.0075 33.3221 24.0075C31.7214 24.0075 30.4238 25.3028 30.4238 26.9006C30.4238 28.4984 31.7214 29.7937 33.3221 29.7937Z" fill="white"/>
<path d="M33.3222 22.7107C32.2355 22.7107 31.1932 23.1416 30.4248 23.9087C29.6563 24.6757 29.2246 25.7161 29.2246 26.8009C29.2246 29.0598 33.3222 36.4777 33.3222 36.4777C33.3222 36.4777 37.4198 29.0598 37.4198 26.8009C37.4198 25.7161 36.9881 24.6757 36.2196 23.9087C35.4512 23.1416 34.409 22.7107 33.3222 22.7107ZM33.3222 28.7961C32.9466 28.7961 32.5795 28.6849 32.2672 28.4767C31.955 28.2684 31.7116 27.9724 31.5679 27.626C31.4241 27.2797 31.3865 26.8985 31.4598 26.5309C31.5331 26.1632 31.7139 25.8254 31.9795 25.5603C32.2451 25.2953 32.5834 25.1147 32.9518 25.0416C33.3201 24.9685 33.7019 25.006 34.0489 25.1495C34.3959 25.2929 34.6924 25.5359 34.9011 25.8476C35.1097 26.1593 35.2211 26.5258 35.2211 26.9006C35.2211 27.1496 35.172 27.396 35.0766 27.626C34.9811 27.856 34.8412 28.0649 34.6649 28.2409C34.4886 28.417 34.2793 28.5566 34.0489 28.6518C33.8185 28.7471 33.5716 28.7961 33.3222 28.7961Z" fill="#3F3D56"/>
<path d="M69.6817 36.4639C71.2824 36.4639 72.58 35.1686 72.58 33.5708C72.58 31.973 71.2824 30.6778 69.6817 30.6778C68.0811 30.6778 66.7834 31.973 66.7834 33.5708C66.7834 35.1686 68.0811 36.4639 69.6817 36.4639Z" fill="white"/>
<path d="M69.6818 29.3809C68.5951 29.3809 67.5528 29.8119 66.7844 30.5789C66.0159 31.346 65.5842 32.3863 65.5842 33.4711C65.5842 35.7301 69.6818 43.1479 69.6818 43.1479C69.6818 43.1479 73.7794 35.7301 73.7794 33.4711C73.7794 32.3863 73.3477 31.346 72.5792 30.5789C71.8108 29.8119 70.7686 29.3809 69.6818 29.3809ZM69.6818 35.4663C69.3063 35.4663 68.9391 35.3552 68.6268 35.1469C68.3146 34.9386 68.0712 34.6426 67.9275 34.2962C67.7838 33.9499 67.7461 33.5688 67.8194 33.2011C67.8927 32.8334 68.0735 32.4957 68.3391 32.2306C68.6047 31.9655 68.943 31.785 69.3114 31.7118C69.6797 31.6387 70.0615 31.6762 70.4085 31.8197C70.7555 31.9632 71.052 32.2061 71.2607 32.5178C71.4693 32.8295 71.5807 33.196 71.5807 33.5709C71.5807 33.8198 71.5316 34.0663 71.4362 34.2962C71.3407 34.5262 71.2009 34.7352 71.0245 34.9112C70.8482 35.0872 70.6389 35.2268 70.4085 35.3221C70.1781 35.4173 69.9312 35.4663 69.6818 35.4663Z" fill="#CCCCCC"/>
</svg>
