<svg width="210" height="205" viewBox="0 0 210 205" fill="none" xmlns="http://www.w3.org/2000/svg">
<path d="M70.7708 7.6015C90.6288 10.6113 94.7801 19.3659 104.5 29C104.5 29 82.8095 18.1735 69 19C54.1103 19.8911 47.5811 21.5213 37 29C31.5 32.8874 27.6093 40.1903 25.5 54.5C23.1157 70.6751 25.9102 79.6055 38.3334 97C38.3334 97 117.411 174.659 116.429 178.226C115.447 181.793 106.616 186.924 106.616 186.924L21.6534 101.44C18.7395 100.449 8.93022 84.7521 6.90479 60.7946C8.9516 45.2923 11.3476 36.691 27.528 22.2063C41.9524 11.1251 51.6924 7.25805 70.7708 7.6015Z" fill="#DF591F"/>
<mask id="path-2-outside-1" maskUnits="userSpaceOnUse" x="0" y="0" width="210" height="194" fill="black">
<rect fill="white" width="210" height="194"/>
<path d="M187.805 22.1794C180.618 14.9774 171.67 9.77828 161.85 7.09788C161.198 6.91523 160.551 6.75231 159.894 6.59928C157.068 5.92482 154.196 5.46441 151.301 5.22196C150.797 5.17259 150.294 5.13803 149.785 5.11335C147.246 4.95291 144.698 4.9628 142.161 5.14297C128.26 6.07231 115.147 11.9279 105.182 21.6561L105.004 21.4784L104.827 21.6561C98.3162 15.3089 90.4163 10.563 81.7524 7.79395C81.2632 7.63598 80.7691 7.48294 80.275 7.33977C73.6026 5.40616 66.6413 4.66252 59.7106 5.14297C59.518 5.15284 59.3253 5.16765 59.1376 5.1874C46.4295 6.1609 34.388 11.2576 24.8473 19.7012C23.9479 20.491 23.0634 21.3204 22.2038 22.1794C14.1268 30.2642 8.58097 40.5239 6.24348 51.7058C3.90599 62.8876 4.87805 74.5075 9.04095 85.1465C9.21393 85.6105 9.40164 86.0697 9.59922 86.5287C12.5396 93.5341 16.8213 99.8982 22.2038 105.263L41.434 124.23L42.946 125.726L84.5587 166.764L85.6309 167.826L96.5603 178.607L105.004 186.935L187.805 105.258C198.816 94.2331 205 79.2941 205 63.7189C205 48.1438 198.816 33.2047 187.805 22.1794ZM186.763 104.207L105.004 184.852L97.6178 177.566L86.9206 167.016L85.8485 165.96L45.0459 125.711L43.5585 124.245L23.2511 104.212C18.038 99.0169 13.8834 92.8606 11.0173 86.0844C10.8197 85.6253 10.6318 85.1662 10.4591 84.7071C6.37436 74.3268 5.40894 62.9814 7.68106 52.0611C9.95319 41.1408 15.3642 31.1198 23.2511 23.226C24.1703 22.3077 25.1107 21.429 26.0724 20.5898H26.0774C35.2563 12.5644 46.7693 7.69191 58.925 6.68815C60.5407 6.54992 62.158 6.4808 63.777 6.4808C64.3847 6.4808 64.9876 6.49067 65.5953 6.51042C70.5607 6.66316 75.4852 7.4597 80.2453 8.88003C80.7345 9.02319 81.2236 9.17622 81.7078 9.33913C86.8571 11.016 91.7379 13.4252 96.1997 16.4923C99.1044 18.4823 101.819 20.7365 104.308 23.226L104.832 23.7492L105.004 23.5765L105.177 23.7492L105.701 23.226C111.237 17.689 117.853 13.3481 125.138 10.4726C132.423 7.59713 140.222 6.24849 148.05 6.51042C148.678 6.53017 149.305 6.55979 149.933 6.60422C150.437 6.63384 150.941 6.6684 151.44 6.71777C154.625 7.00315 157.78 7.55637 160.872 8.37155C161.534 8.5394 162.191 8.72205 162.844 8.92445C172.323 11.7887 180.898 17.0592 187.731 24.2218C194.565 31.3843 199.423 40.1943 201.833 49.7922C204.242 59.3901 204.12 69.4481 201.479 78.9849C198.838 88.5217 193.768 97.2117 186.763 104.207Z"/>
</mask>
<path d="M187.805 22.1794C180.618 14.9774 171.67 9.77828 161.85 7.09788C161.198 6.91523 160.551 6.75231 159.894 6.59928C157.068 5.92482 154.196 5.46441 151.301 5.22196C150.797 5.17259 150.294 5.13803 149.785 5.11335C147.246 4.95291 144.698 4.9628 142.161 5.14297C128.26 6.07231 115.147 11.9279 105.182 21.6561L105.004 21.4784L104.827 21.6561C98.3162 15.3089 90.4163 10.563 81.7524 7.79395C81.2632 7.63598 80.7691 7.48294 80.275 7.33977C73.6026 5.40616 66.6413 4.66252 59.7106 5.14297C59.518 5.15284 59.3253 5.16765 59.1376 5.1874C46.4295 6.1609 34.388 11.2576 24.8473 19.7012C23.9479 20.491 23.0634 21.3204 22.2038 22.1794C14.1268 30.2642 8.58097 40.5239 6.24348 51.7058C3.90599 62.8876 4.87805 74.5075 9.04095 85.1465C9.21393 85.6105 9.40164 86.0697 9.59922 86.5287C12.5396 93.5341 16.8213 99.8982 22.2038 105.263L41.434 124.23L42.946 125.726L84.5587 166.764L85.6309 167.826L96.5603 178.607L105.004 186.935L187.805 105.258C198.816 94.2331 205 79.2941 205 63.7189C205 48.1438 198.816 33.2047 187.805 22.1794ZM186.763 104.207L105.004 184.852L97.6178 177.566L86.9206 167.016L85.8485 165.96L45.0459 125.711L43.5585 124.245L23.2511 104.212C18.038 99.0169 13.8834 92.8606 11.0173 86.0844C10.8197 85.6253 10.6318 85.1662 10.4591 84.7071C6.37436 74.3268 5.40894 62.9814 7.68106 52.0611C9.95319 41.1408 15.3642 31.1198 23.2511 23.226C24.1703 22.3077 25.1107 21.429 26.0724 20.5898H26.0774C35.2563 12.5644 46.7693 7.69191 58.925 6.68815C60.5407 6.54992 62.158 6.4808 63.777 6.4808C64.3847 6.4808 64.9876 6.49067 65.5953 6.51042C70.5607 6.66316 75.4852 7.4597 80.2453 8.88003C80.7345 9.02319 81.2236 9.17622 81.7078 9.33913C86.8571 11.016 91.7379 13.4252 96.1997 16.4923C99.1044 18.4823 101.819 20.7365 104.308 23.226L104.832 23.7492L105.004 23.5765L105.177 23.7492L105.701 23.226C111.237 17.689 117.853 13.3481 125.138 10.4726C132.423 7.59713 140.222 6.24849 148.05 6.51042C148.678 6.53017 149.305 6.55979 149.933 6.60422C150.437 6.63384 150.941 6.6684 151.44 6.71777C154.625 7.00315 157.78 7.55637 160.872 8.37155C161.534 8.5394 162.191 8.72205 162.844 8.92445C172.323 11.7887 180.898 17.0592 187.731 24.2218C194.565 31.3843 199.423 40.1943 201.833 49.7922C204.242 59.3901 204.12 69.4481 201.479 78.9849C198.838 88.5217 193.768 97.2117 186.763 104.207Z" fill="#3F3D56"/>
<path d="M187.805 22.1794L184.266 25.7114L184.267 25.7126L187.805 22.1794ZM161.85 7.09788L160.502 11.9126L160.518 11.9171L160.534 11.9214L161.85 7.09788ZM159.894 6.59928L158.733 11.4626L158.746 11.4658L158.76 11.469L159.894 6.59928ZM151.301 5.22196L150.814 10.1981L150.849 10.2016L150.884 10.2045L151.301 5.22196ZM149.785 5.11335L149.469 10.1034L149.506 10.1057L149.542 10.1075L149.785 5.11335ZM142.161 5.14297L142.494 10.1318L142.504 10.1311L142.515 10.1304L142.161 5.14297ZM105.182 21.6561L101.65 25.195L105.144 28.6817L108.675 25.2338L105.182 21.6561ZM105.004 21.4784L108.537 17.9395L105.002 14.4116L101.47 17.9419L105.004 21.4784ZM104.827 21.6561L101.336 25.2362L104.87 28.6816L108.361 25.1926L104.827 21.6561ZM81.7524 7.79395L80.2162 12.5521L80.2232 12.5544L80.2303 12.5566L81.7524 7.79395ZM80.275 7.33977L78.8833 12.1422L78.8835 12.1422L80.275 7.33977ZM59.7106 5.14297L59.9667 10.1364L60.0115 10.1341L60.0563 10.131L59.7106 5.14297ZM59.1376 5.1874L59.5195 10.1728L59.5902 10.1674L59.6607 10.16L59.1376 5.1874ZM24.8473 19.7012L28.1466 23.4581L28.1538 23.4518L28.1609 23.4454L24.8473 19.7012ZM22.2038 22.1794L18.6695 18.6426L18.6666 18.6456L22.2038 22.1794ZM9.04095 85.1465L13.726 83.4L13.7119 83.3622L13.6972 83.3246L9.04095 85.1465ZM9.59922 86.5287L14.2096 84.5936L14.2008 84.5728L14.1919 84.5521L9.59922 86.5287ZM22.2038 105.263L18.6739 108.805L18.6833 108.814L18.6927 108.823L22.2038 105.263ZM41.434 124.23L44.9505 120.676L44.9451 120.67L41.434 124.23ZM42.946 125.726L39.4295 129.28L39.4351 129.286L42.946 125.726ZM84.5587 166.764L88.0764 163.211L88.0696 163.204L84.5587 166.764ZM85.6309 167.826L82.1132 171.379L82.1195 171.385L85.6309 167.826ZM96.5603 178.607L93.049 182.167L93.0493 182.167L96.5603 178.607ZM105.004 186.935L101.493 190.495L105.005 193.958L108.516 190.495L105.004 186.935ZM187.805 105.258L191.317 108.818L191.33 108.805L191.343 108.792L187.805 105.258ZM105.004 184.852L101.493 188.412L105.004 191.875L108.516 188.412L105.004 184.852ZM97.6178 177.566L101.129 174.006L101.129 174.006L97.6178 177.566ZM86.9206 167.016L90.4315 163.456L90.43 163.455L86.9206 167.016ZM85.8485 165.96L82.3372 169.519L82.3391 169.521L85.8485 165.96ZM45.0459 125.711L48.5572 122.151L48.556 122.15L45.0459 125.711ZM43.5585 124.245L40.0471 127.804L40.0484 127.806L43.5585 124.245ZM23.2511 104.212L19.7217 107.754L19.7307 107.762L19.7397 107.771L23.2511 104.212ZM11.0173 86.0844L15.6224 84.1367L15.6163 84.1223L15.6101 84.1079L11.0173 86.0844ZM10.4591 84.7071L15.1388 82.9464L15.1256 82.9112L15.1118 82.8763L10.4591 84.7071ZM23.2511 23.226L19.7174 19.6885L19.714 19.692L23.2511 23.226ZM26.0724 20.5898V15.5898H24.1974L22.7848 16.8226L26.0724 20.5898ZM26.0774 20.5898V25.5898H27.955L29.3685 24.3539L26.0774 20.5898ZM58.925 6.68815L59.3365 11.6712L59.3439 11.6706L59.3512 11.6699L58.925 6.68815ZM65.5953 6.51042L65.433 11.5078L65.4416 11.5081L65.5953 6.51042ZM80.2453 8.88003L78.8156 13.6713L78.8284 13.6751L78.8411 13.6788L80.2453 8.88003ZM81.7078 9.33913L80.1134 14.0781L80.1365 14.0859L80.1596 14.0934L81.7078 9.33913ZM96.1997 16.4923L93.3673 20.6127L93.3738 20.6172L96.1997 16.4923ZM104.308 23.226L100.772 26.7613L100.774 26.7631L104.308 23.226ZM104.832 23.7492L101.298 27.2864L104.834 30.8191L108.368 27.2843L104.832 23.7492ZM105.004 23.5765L108.538 20.0389L105.002 16.5069L101.468 20.0414L105.004 23.5765ZM105.177 23.7492L101.644 27.2868L105.178 30.8167L108.711 27.2864L105.177 23.7492ZM105.701 23.226L109.235 26.7631L109.237 26.7611L105.701 23.226ZM148.05 6.51042L147.883 11.5076L147.893 11.5079L148.05 6.51042ZM149.933 6.60422L149.58 11.5917L149.61 11.5938L149.639 11.5956L149.933 6.60422ZM151.44 6.71777L150.948 11.6935L150.971 11.6958L150.994 11.6978L151.44 6.71777ZM160.872 8.37155L159.598 13.2063L159.62 13.2124L159.643 13.2182L160.872 8.37155ZM162.844 8.92445L161.361 13.6997L161.379 13.7053L161.397 13.7108L162.844 8.92445ZM191.344 18.6474C183.541 10.8283 173.827 5.18414 163.167 2.27435L160.534 11.9214C169.513 14.3724 177.694 19.1265 184.266 25.7114L191.344 18.6474ZM163.199 2.28318C162.463 2.07692 161.742 1.89593 161.028 1.72956L158.76 11.469C159.36 11.6087 159.934 11.7535 160.502 11.9126L163.199 2.28318ZM161.055 1.73593C157.985 1.00309 154.864 0.502836 151.719 0.239404L150.884 10.2045C153.528 10.426 156.152 10.8465 158.733 11.4626L161.055 1.73593ZM151.789 0.245774C151.189 0.186975 150.601 0.147089 150.027 0.119224L149.542 10.1075C149.986 10.129 150.406 10.1582 150.814 10.1981L151.789 0.245774ZM150.1 0.123303C147.338 -0.051229 144.567 -0.0404663 141.807 0.155522L142.515 10.1304C144.83 9.96607 147.153 9.95704 149.469 10.1034L150.1 0.123303ZM141.827 0.154106C126.739 1.1628 112.506 7.51839 101.69 18.0783L108.675 25.2338C117.788 16.3374 129.78 10.9818 142.494 10.1318L141.827 0.154106ZM108.715 18.1172L108.537 17.9395L101.472 25.0173L101.65 25.195L108.715 18.1172ZM101.47 17.9419L101.292 18.1196L108.361 25.1926L108.539 25.0149L101.47 17.9419ZM108.317 18.0759C101.251 11.187 92.6771 6.03636 83.2746 3.03128L80.2303 12.5566C88.1555 15.0896 95.3815 19.4307 101.336 25.2362L108.317 18.0759ZM83.2887 3.03582C82.7621 2.8658 82.2188 2.69734 81.6665 2.5373L78.8835 12.1422C79.3193 12.2685 79.7642 12.4062 80.2162 12.5521L83.2887 3.03582ZM81.6667 2.53736C74.4305 0.440356 66.8811 -0.366096 59.3648 0.15494L60.0563 10.131C66.4016 9.69114 72.7747 10.372 78.8833 12.1422L81.6667 2.53736ZM59.4545 0.149532C59.1784 0.163692 58.8964 0.185182 58.6144 0.21484L59.6607 10.16C59.7542 10.1501 59.8577 10.142 59.9667 10.1364L59.4545 0.149532ZM58.7557 0.202004C44.9616 1.2587 31.8906 6.79092 21.5336 15.9569L28.1609 23.4454C36.8855 15.7242 47.8973 11.0631 59.5195 10.1728L58.7557 0.202004ZM21.5479 15.9443C20.5662 16.8064 19.6035 17.7093 18.6695 18.6426L25.7381 25.7162C26.5233 24.9315 27.3295 24.1757 28.1466 23.4581L21.5479 15.9443ZM18.6666 18.6456C9.90323 27.4174 3.88564 38.5495 1.34927 50.6827L11.1377 52.7289C13.2763 42.4984 18.3504 33.111 25.741 25.7132L18.6666 18.6456ZM1.34927 50.6827C-1.1871 62.8159 -0.1323 75.4244 4.38471 86.9684L13.6972 83.3246C9.8884 73.5906 8.99908 62.9593 11.1377 52.7289L1.34927 50.6827ZM4.35588 86.893C4.5649 87.4537 4.7855 87.9919 5.00651 88.5054L14.1919 84.5521C14.0178 84.1475 13.863 83.7674 13.726 83.4L4.35588 86.893ZM4.98887 88.4639C8.18146 96.0701 12.8302 102.98 18.6739 108.805L25.7336 101.722C20.8124 96.8167 16.8978 90.9982 14.2096 84.5936L4.98887 88.4639ZM18.6927 108.823L37.9229 127.79L44.9451 120.67L25.7148 101.704L18.6927 108.823ZM37.9175 127.785L39.4295 129.28L46.4624 122.171L44.9505 120.676L37.9175 127.785ZM39.4351 129.286L81.0478 170.324L88.0696 163.204L46.4569 122.166L39.4351 129.286ZM81.041 170.318L82.1132 171.379L89.1485 164.272L88.0764 163.211L81.041 170.318ZM82.1195 171.385L93.049 182.167L100.072 175.048L89.1422 164.266L82.1195 171.385ZM93.0493 182.167L101.493 190.495L108.515 183.376L100.071 175.047L93.0493 182.167ZM108.516 190.495L191.317 108.818L184.294 101.699L101.493 183.376L108.516 190.495ZM191.343 108.792C203.29 96.8293 210 80.6197 210 63.7189H200C200 77.9685 194.343 91.637 184.267 101.725L191.343 108.792ZM210 63.7189C210 46.8182 203.29 30.6085 191.343 18.6462L184.267 25.7126C194.343 35.8009 200 49.4694 200 63.7189H210ZM183.252 100.647L101.493 181.293L108.516 188.412L190.274 107.767L183.252 100.647ZM108.516 181.293L101.129 174.006L94.1065 181.125L101.493 188.412L108.516 181.293ZM101.129 174.006L90.4315 163.456L83.4097 170.576L94.1069 181.126L101.129 174.006ZM90.43 163.455L89.3579 162.398L82.3391 169.521L83.4113 170.578L90.43 163.455ZM89.3598 162.4L48.5572 122.151L41.5346 129.271L82.3372 169.519L89.3598 162.4ZM48.556 122.15L47.0687 120.684L40.0484 127.806L41.5358 129.272L48.556 122.15ZM47.0699 120.685L26.7625 100.652L19.7397 107.771L40.0471 127.804L47.0699 120.685ZM26.7805 100.67C22.0256 95.9318 18.2363 90.3168 15.6224 84.1367L6.4123 88.0322C9.53043 95.4045 14.0505 102.102 19.7217 107.754L26.7805 100.67ZM15.6101 84.1079C15.4353 83.7017 15.278 83.3164 15.1388 82.9464L5.77935 86.4679C5.98562 87.0161 6.20423 87.549 6.42462 88.0611L15.6101 84.1079ZM15.1118 82.8763C11.3836 73.4018 10.5024 63.0467 12.5762 53.0796L2.7859 51.0426C0.315441 62.9161 1.36517 75.2518 5.80633 86.538L15.1118 82.8763ZM12.5762 53.0796C14.65 43.1125 19.5888 33.9656 26.7882 26.7599L19.714 19.692C11.1395 28.274 5.25635 39.1691 2.7859 51.0426L12.5762 53.0796ZM26.7847 26.7634C27.6259 25.9231 28.4844 25.1211 29.36 24.357L22.7848 16.8226C21.7371 17.7369 20.7146 18.6924 19.7174 19.6885L26.7847 26.7634ZM26.0724 25.5898H26.0774V15.5898H26.0724V25.5898ZM29.3685 24.3539C37.7422 17.0326 48.2459 12.587 59.3365 11.6712L58.5135 1.70511C45.2928 2.79682 32.7704 8.09628 22.7863 16.8257L29.3685 24.3539ZM59.3512 11.6699C60.8254 11.5438 62.3005 11.4808 63.777 11.4808V1.4808C62.0155 1.4808 60.256 1.55601 58.4988 1.70634L59.3512 11.6699ZM63.777 11.4808C64.3301 11.4808 64.8789 11.4898 65.433 11.5078L65.7577 1.51306C65.0963 1.49157 64.4393 1.4808 63.777 1.4808V11.4808ZM65.4416 11.5081C69.9746 11.6475 74.4702 12.3747 78.8156 13.6713L81.6749 4.08877C76.5003 2.54474 71.1469 1.67883 65.7491 1.51278L65.4416 11.5081ZM78.8411 13.6788C79.2709 13.8046 79.6963 13.9378 80.1134 14.0781L83.3022 4.60015C82.7509 4.41467 82.1982 4.24182 81.6494 4.08123L78.8411 13.6788ZM80.1596 14.0934C84.8527 15.6217 89.3009 17.8174 93.3673 20.6127L99.0322 12.372C94.1748 9.03292 88.8615 6.41032 83.2561 4.58488L80.1596 14.0934ZM93.3738 20.6172C96.0243 22.433 98.501 24.4898 100.772 26.7613L107.844 19.6906C105.136 16.9832 102.185 14.5317 99.0256 12.3675L93.3738 20.6172ZM100.774 26.7631L101.298 27.2864L108.366 20.2121L107.842 19.6888L100.774 26.7631ZM108.368 27.2843L108.54 27.1115L101.468 20.0414L101.296 20.2142L108.368 27.2843ZM101.471 27.114L101.644 27.2868L108.711 20.2117L108.538 20.0389L101.471 27.114ZM108.711 27.2864L109.235 26.7631L102.167 19.6888L101.644 20.2121L108.711 27.2864ZM109.237 26.7611C114.288 21.7088 120.325 17.7475 126.973 15.1234L123.302 5.82179C115.38 8.94869 108.185 13.6693 102.165 19.6908L109.237 26.7611ZM126.973 15.1234C133.622 12.4994 140.739 11.2686 147.883 11.5076L148.217 1.51322C139.705 1.22839 131.224 2.6949 123.302 5.82179L126.973 15.1234ZM147.893 11.5079C148.469 11.5261 149.03 11.5528 149.58 11.5917L150.286 1.6167C149.581 1.56679 148.887 1.53427 148.208 1.51289L147.893 11.5079ZM149.639 11.5956C150.116 11.6236 150.544 11.6536 150.948 11.6935L151.932 1.74204C151.337 1.6832 150.758 1.64409 150.226 1.61283L149.639 11.5956ZM150.994 11.6978C153.899 11.9581 156.777 12.4628 159.598 13.2063L162.147 3.53676C158.783 2.64997 155.351 2.04816 151.886 1.73772L150.994 11.6978ZM159.643 13.2182C160.232 13.3675 160.804 13.5267 161.361 13.6997L164.326 4.14918C163.579 3.91738 162.836 3.71131 162.101 3.5249L159.643 13.2182ZM161.397 13.7108C170.051 16.3252 177.877 21.136 184.114 27.6732L191.349 20.7704C183.919 12.9825 174.596 7.2522 164.29 4.13815L161.397 13.7108ZM184.114 27.6732C190.35 34.2104 194.784 42.2507 196.983 51.0096L206.682 48.5748C204.062 38.1379 198.779 28.5583 191.349 20.7704L184.114 27.6732ZM196.983 51.0096C199.182 59.7685 199.071 68.9472 196.66 77.6504L206.298 80.3194C209.17 69.9489 209.302 59.0117 206.682 48.5748L196.983 51.0096ZM196.66 77.6504C194.25 86.3536 189.623 94.2845 183.23 100.669L190.296 107.745C197.912 100.139 203.426 90.6898 206.298 80.3194L196.66 77.6504Z" fill="#3F3D56" mask="url(#path-2-outside-1)"/>
<path d="M83.2673 88.5C83.2686 80.1509 86.1213 72.0545 91.3498 65.5604C96.5783 59.0664 103.867 54.5671 112 52.8126C106.697 51.6704 101.206 51.7331 95.9307 52.996C90.6549 54.2589 85.7273 56.6902 81.5089 60.1117C77.2905 63.5331 73.888 67.8582 71.5506 72.7702C69.2131 77.6821 68 83.0566 68 88.5C68 93.9434 69.2131 99.3179 71.5506 104.23C73.888 109.142 77.2905 113.467 81.5089 116.888C85.7273 120.31 90.6549 122.741 95.9307 124.004C101.206 125.267 106.697 125.33 112 124.187C103.867 122.433 96.5783 117.934 91.3498 111.44C86.1213 104.946 83.2686 96.8491 83.2673 88.5Z" fill="#DF591F"/>
<path d="M105.001 126.5H105.002C115.209 126.488 124.994 122.429 132.211 115.211C139.429 107.994 143.488 98.2086 143.5 88.0019V88.0002C143.5 80.3856 141.242 72.942 137.012 66.6106C132.781 60.2793 126.768 55.3446 119.733 52.4307C112.698 49.5167 104.957 48.7542 97.4889 50.2398C90.0206 51.7254 83.1606 55.3922 77.7763 60.7765C72.392 66.1609 68.7252 73.021 67.2397 80.4893C65.7542 87.9576 66.5168 95.6987 69.4308 102.734C72.3449 109.769 77.2796 115.781 83.6109 120.012C89.9423 124.242 97.3859 126.5 105.001 126.5ZM104.983 54.0218C104.988 54.0218 104.994 54.0218 104.999 54.0218C114.008 54.0321 122.645 57.6155 129.015 63.9858C135.385 70.356 138.968 78.993 138.978 88.0019C138.978 94.7216 136.985 101.29 133.252 106.877C129.518 112.465 124.211 116.82 118.003 119.392C111.794 121.964 104.962 122.636 98.3709 121.325C91.7797 120.014 85.7254 116.778 80.9735 112.026C76.2216 107.274 72.9856 101.22 71.6746 94.6285C70.3636 88.0373 71.0366 81.2054 73.6084 74.9967C76.1802 68.788 80.5353 63.4814 86.1231 59.7479C91.706 56.0176 98.2689 54.0251 104.983 54.0218ZM104.972 52.5218L104.959 52.5218L105.001 52.5218C104.991 52.5218 104.981 52.5218 104.972 52.5218Z" fill="#3F3D56" stroke="#3F3D56" stroke-width="3"/>
<path d="M105 205C123.41 205 138.333 203.267 138.333 201.129C138.333 198.991 123.41 197.258 105 197.258C86.5906 197.258 71.6667 198.991 71.6667 201.129C71.6667 203.267 86.5906 205 105 205Z" fill="#DF591F"/>
</svg>
